<?xml version="1.0" encoding="utf-8"?>
<!-- Generator: Adobe Illustrator 27.7.0, SVG Export Plug-In . SVG Version: 6.00 Build 0)  -->
<svg version="1.1" id="Layer_1" xmlns="http://www.w3.org/2000/svg" xmlns:xlink="http://www.w3.org/1999/xlink" x="0px" y="0px"
	 viewBox="0 0 557.8 510.2" style="enable-background:new 0 0 557.8 510.2;" xml:space="preserve">
<style type="text/css">
	.st0{fill:#73A3D9;}
	.st1{fill:#FFFFFF;}
	.st2{fill-rule:evenodd;clip-rule:evenodd;fill:#FFFFFF;}
	.st3{fill:#4070A6;}
</style>
<g>
	<polygon class="st0" points="354.7,362.9 282.4,482.5 204.1,358.8 204.1,31.8 354.7,31.8 	"/>
	<g>
		<rect x="243.4" y="319.1" class="st1" width="27.8" height="39.7"/>
		<rect x="313.2" y="319.1" class="st1" width="27.8" height="39.7"/>
		<rect x="292" y="249.9" class="st1" width="27.8" height="39.7"/>
		<rect x="222.2" y="249.9" class="st1" width="27.8" height="39.7"/>
	</g>
	<g>
		<rect x="243.4" y="182.9" class="st1" width="27.8" height="39.7"/>
		<rect x="313.2" y="182.9" class="st1" width="27.8" height="39.7"/>
		<rect x="292" y="113.8" class="st1" width="27.8" height="39.7"/>
		<rect x="222.2" y="113.8" class="st1" width="27.8" height="39.7"/>
	</g>
	<g>
		<rect x="243.4" y="46.6" class="st1" width="27.8" height="39.7"/>
		<rect x="313.2" y="46.6" class="st1" width="27.8" height="39.7"/>
	</g>
</g>
<g>
	<g>
		<polygon class="st0" points="172.3,30.5 158.5,380.1 158.2,382.9 157.2,388.1 156.4,390.8 155,393.4 90.2,483.8 24,329.2 
			23.2,326.5 22.2,321.4 21.9,318.4 10.7,30.5 		"/>
		<path class="st1" d="M127.9,360.1l-4.9,1.3l-4.4,2.5c-13.7,10.1-9.6,31.3,6.8,35.7l5.1,0.7l5-0.7c16.3-4.5,20.6-25.5,6.8-35.7
			l-4.4-2.5l-4.9-1.3"/>
		<path class="st1" d="M47.5,298.6l-4.9,1.3l-4.4,2.4c-13.7,10.1-9.7,31.3,6.8,35.7l5,0.7l5-0.7c16.3-4.3,20.6-25.3,6.8-35.7
			l-4.4-2.4l-4.9-1.3"/>
		<path class="st1" d="M127.9,236.9l-4.9,1.3l-4.4,2.5c-13.7,10.1-9.7,31.2,6.8,35.7l5.1,0.7l5-0.7c16.3-4.5,20.6-25.4,6.8-35.7
			l-4.4-2.5l-4.9-1.3"/>
		<path class="st1" d="M47.5,175.3l-4.9,1.3l-4.4,2.5c-13.7,10-9.7,31.4,6.8,35.7l5,0.7l5-0.7c16.4-4.3,20.6-25.4,6.8-35.7l-4.4-2.5
			l-4.9-1.3"/>
		<path class="st1" d="M47.5,52.1l-4.9,1.3l-4.4,2.5C24.5,66,28.6,87,45,91.5l5,0.7l5-0.7c16.4-4.5,20.6-25.3,6.8-35.7l-4.4-2.5
			L52.5,52"/>
		<path class="st1" d="M127.9,113.7L123,115l-4.4,2.5c-13.7,10.1-9.7,31.2,6.8,35.7l5.1,0.7l5-0.7c16.3-4.5,20.6-25.4,6.8-35.7
			l-4.4-2.5l-4.9-1.3"/>
	</g>
</g>
<path class="st0" d="M547.9,152.8c-48.2,19.7-80.3,72.2-87.8,94.7c-28,84-2.3,151.3,8.7,176.4L436,483.8l-43-49.6
	c-10.9-25.2-41.3-103.6-13.3-187.6c7.5-22.5,38.8-77.5,87.1-97.3"/>
<path class="st0" d="M547.9,152.8c3.1,3.7,16.1,56-13.8,96.9c-6.6,9.1-10.4,12.8-19.7,16.6L489,229c7.3-6.4,16.2-16.5,16.1-28.7
	c-0.2-26.3-46.3-45.1-38.5-51c3.5-2.6,68.1-0.4,76,0.9"/>
<polygon class="st2" points="390.4,276.2 384.3,259.3 384.3,255 390.4,238.1 416.2,238.1 422.3,255 422.3,259.3 416.2,276.2 "/>
<polygon class="st2" points="409.4,331.8 403.3,314.8 403.3,310.6 409.4,293.7 435.2,293.7 441.4,310.6 441.4,314.8 435.2,331.8 "/>
<polygon class="st2" points="390.9,388.4 380.7,373.5 379.7,369.5 381.5,351.5 406.5,345.2 416.6,360.1 417.6,364.2 415.8,382.1 "/>
<polygon class="st2" points="431.2,439.3 421.1,424.4 420,420.3 421.8,402.4 446.8,396 456.9,410.9 458,415 456.2,432.9 "/>
<path class="st3" d="M511.4,247.2C460.3,219.7,441.5,131,468.3,26l-79.2,13.7c-26.8,105-8,193.7,43.1,221.1
	c29.4,15.8,83,18.6,101.9-11.3"/>
</svg>
