<?xml version="1.0" encoding="utf-8"?>
<!-- Generator: Adobe Illustrator 27.7.0, SVG Export Plug-In . SVG Version: 6.00 Build 0)  -->
<svg version="1.1" id="Layer_1" xmlns="http://www.w3.org/2000/svg" xmlns:xlink="http://www.w3.org/1999/xlink" x="0px" y="0px"
	 viewBox="0 0 557.8 510.2" style="enable-background:new 0 0 557.8 510.2;" xml:space="preserve">
<style type="text/css">
	.st0{fill:#4070A6;}
</style>
<g id="Computed_Tomography_00000044168107568123888030000000906684514512759451_">
	<path class="st0" d="M142.1,337.1c-14.4-24-22.7-52-22.7-82c0-88,71.6-159.5,159.5-159.5s159.5,71.6,159.5,159.5
		c0,30-8.3,58-22.7,82l25.8,51.7c29.9-36.4,47.9-82.9,47.9-133.7c0-116.3-94.2-210.5-210.5-210.5S68.4,138.9,68.4,255.1
		c0,50.8,18,97.3,47.9,133.7L142.1,337.1z M469.7,273.2c-2.7,0-4.9-2.2-4.9-4.9c0-2.7,2.2-4.9,4.9-4.9s4.9,2.2,4.9,4.9
		C474.6,271,472.4,273.2,469.7,273.2z M469.7,260.1c-2.7,0-4.9-2.2-4.9-4.9c0-2.7,2.2-4.9,4.9-4.9s4.9,2.2,4.9,4.9
		C474.6,257.8,472.4,260.1,469.7,260.1z M456.5,237h13.2c2.7,0,4.9,2.2,4.9,4.9c0,2.7-2.2,4.9-4.9,4.9h-13.2c-2.7,0-4.9-2.2-4.9-4.9
		C451.6,239.2,453.8,237,456.5,237z M456.5,250.2c2.7,0,4.9,2.2,4.9,4.9c0,2.7-2.2,4.9-4.9,4.9c-2.7,0-4.9-2.2-4.9-4.9
		C451.6,252.4,453.8,250.2,456.5,250.2z M456.5,263.3c2.7,0,4.9,2.2,4.9,4.9c0,2.7-2.2,4.9-4.9,4.9c-2.7,0-4.9-2.2-4.9-4.9
		C451.6,265.5,453.8,263.3,456.5,263.3z M241.2,61.3c25.2-4.8,50.9-4.7,75.4,0c3.7,0.7,6,4.3,5.2,7.9l-3,12.9
		c-0.8,3.5-4.2,5.6-7.7,5c-21.4-4.1-43.4-4-64.4,0c-3.5,0.7-6.9-1.5-7.7-5l-3-12.9C235.2,65.6,237.6,62.1,241.2,61.3z M94.7,225.5
		c2.4,0,4.6,0.6,6.6,1.8c3.9,2.3,6.6,6.5,6.6,11.4c0,7.3-5.9,13.2-13.2,13.2c-2.4,0-4.6-0.6-6.6-1.8c-3.9-2.3-6.6-6.5-6.6-11.4
		C81.6,231.4,87.5,225.5,94.7,225.5z M94.7,284.7c-2.4,0-4.6-0.6-6.6-1.8c-3.9-2.3-6.6-6.5-6.6-11.4c0-7.3,5.9-13.2,13.2-13.2
		c2.4,0,4.6,0.6,6.6,1.8c3.9,2.3,6.6,6.5,6.6,11.4C107.9,278.8,102,284.7,94.7,284.7z"/>
	<path class="st0" d="M413.9,333.6c13.5-23.1,21.2-49.9,21.2-78.5c0-86.1-70.1-156.2-156.2-156.2S122.7,169,122.7,255.1
		c0,28.6,7.7,55.4,21.2,78.5l13.7-27.5c-6.6-15.7-10.3-32.9-10.3-51c0-72.7,58.9-131.6,131.6-131.6s131.6,58.9,131.6,131.6
		c0,18.1-3.7,35.3-10.3,51L413.9,333.6z"/>
	<rect x="173.7" y="442.6" class="st0" width="210.5" height="23"/>
	<rect x="121" y="390" class="st0" width="315.8" height="49.3"/>
	<polygon class="st0" points="436.8,386.7 121,386.7 173.7,281.4 384.2,281.4 	"/>
</g>
</svg>
