<?xml version="1.0" encoding="utf-8"?>
<!-- Generator: Adobe Illustrator 27.7.0, SVG Export Plug-In . SVG Version: 6.00 Build 0)  -->
<svg version="1.1" id="Layer_1" xmlns="http://www.w3.org/2000/svg" xmlns:xlink="http://www.w3.org/1999/xlink" x="0px" y="0px"
	 viewBox="0 0 557.8 510.2" style="enable-background:new 0 0 557.8 510.2;" xml:space="preserve">
<style type="text/css">
	.st0{fill-rule:evenodd;clip-rule:evenodd;fill:#73A3D9;}
	.st1{fill-rule:evenodd;clip-rule:evenodd;fill:#FFFFFF;}
	.st2{fill-rule:evenodd;clip-rule:evenodd;fill:#3C628C;}
	.st3{fill-rule:evenodd;clip-rule:evenodd;fill:#3A526D;}
	.st4{fill-rule:evenodd;clip-rule:evenodd;fill:#6381A3;}
	.st5{fill-rule:evenodd;clip-rule:evenodd;fill:#8AA1BA;}
	.st6{fill:#FAFF00;stroke:#000000;stroke-width:2;stroke-linecap:round;stroke-linejoin:round;stroke-miterlimit:10;}
</style>
<path class="st0" d="M850.8,510.2"/>
<path class="st0" d="M210.1,51.2c-21-2-35.6,12.9-52.5,20.9c-18.9,1.1-23.6,24.5-40.7,28.9c-16.4,6.6-15.8,27.2-26.5,39.1
	c-9.1,9.8-9.9,23.5-12.5,35.7c-11.9,11.3-1.3,23.6-1.9,35.6c-14.7,20.6-19,49.3-9.2,72.8c7.1,11.4,11.4,29,27,30.9
	c14.3,3.2,20.7,24.5,38.8,16.1c17.4-8.6,32.9,19.5,48.4,1.3c9.9-6.8,1.8-40.8,19.4-28.9c17,6.1,38-8.4,31.4-27.3
	c-2.4-25.1-2.8-50.4-1-75.5c-3.9-13.7,2.1-27.2-1.2-40.9c-1.9-15,3.1-29.8,1.2-45c-2.6-17.7,4.2-38.4-2.8-53.6
	C223.3,56.4,217.4,51.2,210.1,51.2L210.1,51.2z M258.7,51.2c-18.9,2.1-21.5,20.4-17.5,35.2c-1.6,17.8-0.1,35.7-1.6,53.5
	c2.6,18,1.8,36.2-1.4,54c1.5,24,1.7,48.1,2.8,72.2c-1.5,16.1-3,40.1,20,38.9c9.7-1.3,21.3-10.2,21,6.2c-1.4,16.5,14.3,34.9,31,25
	c12.3-15.9,36,5.9,48.3-10.7c8.4-13.4,30-9.7,34.7-27.7c9.7-15.1,14.6-33.1,11.5-51c-0.9-13.5-7-25.8-14.4-36.8
	c3.3-11.9,8.7-23.4-1.1-34.3c-2.5-13-4.1-26.8-13.4-37.3c-10.3-11.8-9.6-32.3-26.6-37.9c-13.4-3.7-17.6-18.5-29.3-25.1
	c-17.5-1.9-28.2-18.2-45-21.8C271.3,52.6,264.9,52.1,258.7,51.2L258.7,51.2z M258.7,51.2"/>
<path class="st1" d="M207.7,69.6c-10.1,4.9-17.5,6-28.7,4c-10.9-1.6-12.8,27.3-5.2,12.9c3.9-17.7,23,1.3,31.6-11.8
	c6.5-2.3,28.4,10.3,22.7-3.1C221.9,74.8,215.1,69.4,207.7,69.6L207.7,69.6z M281.2,75.6c-7.1-3.1-17.3,9.4-5.5,5.6
	c15.9-6.6,21.1,14.1,34.3,15.8c3.9,1.8,15.9,9.9,10-0.4C302.7,94.5,299,76,281.2,75.6L281.2,75.6z M204.4,96.4
	c-15.3,3.3-33.9,8.2-39.3,25c-9.3,13.5-2.2,33.2,15.3,33.1c-10.2-1.5-22.8,16.3-9.1,17.4c-10.1-13.2,23.7-9.9,13.5-20.9
	c-17.3,0.5-24.6-16.7-14.3-30.1c5.2-16.1,26.4-14.5,36.4-22.5l-0.9-1.5L204.4,96.4L204.4,96.4z M148.1,102.7
	c-14.5,0.3-30.3,8.5-36.5,21.9c-1.5,8.7,2.5,19.5-10.2,19.4c-15.7,9.7,5.6,25.9-1.3,35.4c-16.2,5.2-11.4,21.5-7.7,33.4
	c-4,4-9.4,11.1-16.7,14.1c0.7,12.2,16.9-10.3,24.7-10.1c9.5-7.7,16,18.5,17,4.3c-2.4-16.6-24.5-0.6-22.2-17.6
	c-11.8-16,17.4-18.2,11.2-32.7c-7.4-9.5-8.6-25.6,7.1-26.2c3.2-11.8,1.1-28,17.2-32.4C133.6,106.6,156.8,109.9,148.1,102.7
	L148.1,102.7z M226.5,102.7c-17.9,0.5-39.8,12.1-39.3,32.4c7.9,7.6,3.1-15.9,12.4-17.3c5.9-11.1,26.6-5,29.1-14.4
	C228.2,102.7,227.3,102.7,226.5,102.7L226.5,102.7z M289.7,106.5c-12.3-2-11.3,19.6-20.1,6.6c-7.7,0.6-15.7-0.8-20.8-1.7
	c1.4,14,22.6-1,26.2,13.3c6.9-5.2,12.5-20.1,24.9-11.3c12.5,1.3,5.9,23.7,15.4,21.5c-6.4-11.6,13.1-13,10.6-20.8
	c-8.3,1.3-13.5,11.9-17.9-0.4C303.3,108.9,296.4,106.4,289.7,106.5L289.7,106.5z M343.8,112.6c-8.8,6.6,6.7,20,3,29.7
	c8.3,5.8,21.8,7.2,20.6,20c11.4-5.7-4.5-21.3-14.4-21.2c-3.2-7.2-5.2-21.5-7.7-28.2L343.8,112.6L343.8,112.6L343.8,112.6z
	 M249.9,125c-9.4-1.5-13.5,14.3-2.7,5.7c8.2,0.8,21.9,16.2,15.4,25.4c-4.3,9.7,16.9,15.1,5.6,4.4c-5-14.8,15-16.4,19.5-3.8
	c4,13,16.4,18.3,27.3,22.2c0.7,14.9-12.9,24.7-7.4,39.5c-7.1,3.3-20,9.7-21.1-2.4c-9.2-0.1,9.5,28.3-10.1,24.2
	c-12-1.7-19.8,14.3-33.4,11.5c-8.8,8.5,13.5,3.5,17.7,0.9c7.3-13.1,28.5-0.9,29.8-18.3c-0.3-13.1,12.6-4.2,8.8,6.1
	c-2.1,14.6-13.5,25.1-21.8,36.4c6.6,8,13.8-14.3,21.1-17.4c7.6-11,15.4,0.8,21.1,4.2c6.4-11.5-19.5-14.7-18.1-13.7
	c7.9-9.7-7-25.7,8.3-27.1c6.5-9.4-3.2-20.9,7.6-29.2c6.2-12,0.9-24.9-13.7-24.4c-11.4-7-15.7-31.7-33.3-25.7
	C261.6,141.7,259.9,127,249.9,125L249.9,125z M222.7,133.1c-12.9,6-26,25.8-17.1,39.8c11.2,6-4-13,3.7-17.8
	c3.7-8.7,10.6-18.8,18.8-16.8C228.6,135.5,225.3,133,222.7,133.1L222.7,133.1z M144.4,134c-8,1.9-8.7,30-5.2,21.6
	c-17.7,1.5-24.7,22.4-28.4,37.3c5.5,10.4,6.6-13.1,10.6-16.6c4-11.6,15-18.5,25.8-15c-0.9-8.4-9.4-17-0.5-25.1
	C146.7,134.9,145.6,133.9,144.4,134L144.4,134z M326.3,146.4c-4.7,4.5,7.8,14.4,5.2,23.3c-2.4,7.3,6,19.8,5.4,6
	c-7.7-18.4,17.5-6.5,19.6,4.1c9.4,16.5-0.9,34.6-7.6,50c0.1,10.5,12.3,24.4,1.7,32.4c-11.1,11.6-27.1,13.3-41.5,17.9
	c-12.4,3.6-18.1,20.3-31.5,19.2c9.3,13,21.4-10.2,31.3-14c14.5-5.1,31-6.5,42.7-17.7c8.3-9.9,17.7-18.1,29.8-16.9
	c-7.7-11.2,3.9-14.9,10.8-19.5c-9-7.7-20.9,9.8-18.4,15.1c-8-4.1-15.7,13.7-14.7,0.1c-11.3-13.8,1-26.7,4.4-40.9
	c5.8-17.3-4.2-41.7-23.7-44.1C330,166.4,336.6,147.1,326.3,146.4L326.3,146.4z M282.1,172.8c-3.9,6.1,9,26.7-8.3,27.7
	c-5.9,3.4-16.8-9.7-17.6,0.7c10.1,7.7,23.4,0.5,31.5,1.7c7.7,8.4,10.8-2.3,1.4-4.8C284.8,193,292.1,177.5,282.1,172.8L282.1,172.8z
	 M190.7,176.5c-16.6,9.1-1.3,31.2,14.3,25.9c7.8,2.6,29.9-13.2,16.1-11.7c-6.7,9-35.4,12.1-32.3-5.3
	C189.5,182.7,197,178.2,190.7,176.5L190.7,176.5z M143,180.7c-11,4.6-22.3,21.9-12.1,32.7c3.8,9.4,29.7,14.5,25,2
	c-10.3,9.2-31.1-7.3-22.1-19.5c4-8,11.1-15.2,17-3.7c7.4,4.9,17.1,0.8,12.5,13c-4.5,12.8,21.1,13.9,6.6,23.2
	c-9,7.7,6.1,24.8-10.4,20.4c-9.4-3.2-17.8,10.9-5.1,5.6c14.8-3.5,29.2,1.7,42.9,6.6c12,2.7,8.5,30.7,19.4,27.5
	c-4.8-14-8.2-33.1-26.2-35c-14.2,0.7-26.5-13.8-14.5-25.4c10.1-12.5,21.6,6.1,31.6,10.6c11.3-3.3-10.6-9.8-12.8-15.9
	c-10.1-5.2-29-3.1-26.7-20.8c3-7.7,2.3-14.4-7.9-11.3C152.8,191.1,150.1,181.5,143,180.7L143,180.7z M378.4,181.5
	c-2,9.4-6.6,25.8,1.2,35.6c9.4-0.1-5.3-13.5,1.6-19.6C381.4,192.8,384.3,183.5,378.4,181.5L378.4,181.5z M165.8,192
	C165.9,192.2,165.5,192.3,165.8,192L165.8,192z M328.3,196.6c-4.1,9.1,16.3,22.9,2.4,34c-0.7,6.2-21.8,12-8.3,12.5
	c13.5-4.1,23.4-24.1,13.7-36.2C333,204.1,332.5,197.7,328.3,196.6L328.3,196.6z M104.3,227.9c-7.9,13,1.7,34.1,16.6,39.5
	c20.6,8.9,39.8,21,61.3,27.6c3.5,3.9,18.4,12.2,10.5,1.6c-10.8-9.8-26.3-10.4-38.3-18.3c-13.6-8-29.7-12.1-41.7-22.6
	C103.1,249.1,110.5,233.8,104.3,227.9L104.3,227.9z M76.8,244.1c-9.8,7.9,14.7,20.1-0.4,24.5c0.2,9.3,15.1-7.6,21.2,2.8
	c8.2,7.5,11.7,15.8,24.1,13.3c16.2,4.1-3.7,26.6,3,33.1c6.4-3.1,2.8-14.8,13.6-13.9c10.6-9.4,25.1-3.3,26.1,10.9
	c10.7-6.4-9.5-28.5-21.1-18.6c-6.5,3.6-15.5,8.9-10.6-3.4c0.5-19.3-25-8-30.5-23.9c-9.7-5.2-20.5-7.3-22.9-20.3
	C79.2,246.9,79.4,244.1,76.8,244.1L76.8,244.1z M392.3,261.7c-2.9,8.7-2.8,21.5-14.4,26.9c-7.3,9.4-14,4.2-21-0.3
	c-12.1,4.4-21.4,23.2-33.3,19.4c3.6-9-15.9-16.8-6.8-6.2c1.7,6.7,1.7,17.8,11.7,11.1c13.8-12.3,19.7,11.1,6.2,15.9
	c0.9,12.5,20.1-12,10.8-19.8c-3.1-8.2,13.4-23,18.5-9.8c14.4-0.4,31.9-15.2,30.8-30.6C394.4,266.1,395.8,261.9,392.3,261.7
	L392.3,261.7z M112.3,283.1l-0.2,0.3L112.3,283.1L112.3,283.1L112.3,283.1z M104.2,296.7c-7.8,2.8-1.2,29.3,1.9,17.1
	C103,309.1,110.2,298.7,104.2,296.7L104.2,296.7z M104.2,296.7"/>
<path class="st2" d="M232.7,79.2c-3.8,5.5-0.2,13.9-1.2,20.6c-0.5,15.8,1.7,31.8-1.6,47.4c-1.3,12.1,4.1,24.4,0.1,36.3
	c-1.2,7.5,2.6,14.8,1.5,22.4c-1.7,16.5-1.5,33.1-0.5,49.6c0.3,11.6,2,23.1,2,34.6c5.5,7.2,8.2-3.4,6.7-8.1c0.7-15.6-0.4-31.2-1-46.7
	c0-14.2-0.9-28.5-1.5-42.6c1.4-9.7,3.2-19.3,3-29.2c0.9-9.9-2.8-19.5-1.5-29.4c0.8-9.9,1.3-19.8,0.5-29.7c-1.2-7.8,4.5-19.5-1.5-25
	C236,79.1,234.4,79.4,232.7,79.2L232.7,79.2z M232.7,79.2"/>
<path class="st3" d="M228.2,455.6c0-7.9,0-15.9,0-23.8c0-9-0.4-16.8-2.6-25.6c-2-7.9-5.3-17.6-7.8-23.9c4.7,0.3,9.4,0.5,14.2,0.5
	c9.1,0,18.8,0.2,28.4,0c-2.5,11.6-7,30-7,45.2c0,15.9-3.4,12.7-3.4,30.3h6.6c0-16.7,1.4-13.5,1.4-30.3c0-14.7,4.7-33.7,7.1-45.4
	c7.1-0.3,14.2-1,21.1-2.4c3.2-0.6,6.2-1.8,9-2.6c12.2-3.5,26.6-4.5,38.7-7.5c11.6-2.9,22.6-8,30.9-14.2c4.8-3.6,8.2-6.2,10.8-9.4
	c2.6-3.2,4.1-6.9,5.1-12.1c0.7-3.4,1.8-5.6,2.9-8.2c1.1-2.6,2.1-5.6,2.1-9.8c0-0.5-0.1-1-0.4-1.4c1.1-0.5,2-1.1,2.9-2
	c7.2-7.2,13.5-20.4,18-29.4c6.4-12.8,5.2-32.7,2.7-45.3c-2.1-10.7-7.7-21.5-12.9-28.5c-0.6-0.7-0.7-1.3-0.5-2.4c0.1-1,0.6-2.4,1.4-4
	c1.5-3.2,3.8-7.2,4.6-11.8c0.3-2.1-0.4-3.7-1.3-5.6c-0.9-1.9-2-3.9-3.1-6.1c-2.2-4.3-4.4-9-4.4-12.6c0-11.1-5.2-21.5-11.7-30.2
	c-7.1-9.4-8.3-16.7-13.6-27.2c-2.7-5.3-7.1-8.5-11.6-10.9c-4.3-2.3-8.8-4-12.5-6.1c-1.5-3-4.3-6.4-7.7-9.9
	c-3.6-3.8-7.8-7.6-11.4-10.3c-3.9-2.9-8-3.3-11.3-3.7c-3.3-0.4-5.8-0.9-8.5-3.6c-6.2-6.2-11.9-8.4-17.8-12.7c-0.8-0.6-1.5-0.8-2.3-1
	c-0.8-0.2-1.8-0.5-2.8-0.6c-2.1-0.4-4.6-0.7-7.1-1.1c-2.5-0.3-5-0.6-7.1-0.9c-2-0.2-3.8-0.5-4.1-0.6c-1.2-0.3-2.4-0.5-3.5-0.5
	c-3.4-0.1-6.6,0.9-9.2,2.2c-3.5,1.8-6.3,4.4-8.3,6.4c-3.3,3.3-5.5,6.3-6.2,9.6c-0.7,3.2,0.1,6.3,1.8,9.7c0,0.1,0,0.1,0,0.2
	c-0.9-0.1-1.7-0.1-2.4-0.1c-1.3,0-2.2-0.1-2.4-0.2c0.1-0.6,0.2-0.9,0.2-0.9c1.8-3.6,2.3-6.9,1-9.8c-1.2-2.9-3.6-5.2-6.8-8.4
	c-2-2-4.8-4.5-8.3-6.4c-2.5-1.3-5.4-2.2-8.6-2.3l0,0c-0.2,0-0.4,0-0.6,0c-1.1,0-2.3,0.2-3.5,0.5c-0.3,0.1-2,0.3-4.1,0.6
	c-2,0.2-4.6,0.5-7.1,0.9c-2.5,0.3-5,0.7-7.1,1.1c-1,0.2-2,0.4-2.8,0.6c-0.8,0.2-1.5,0.4-2.3,1c-5.8,4.4-11.6,6.6-17.8,12.7
	c-2.7,2.7-5.2,3.1-8.5,3.6c-3.3,0.4-7.3,0.8-11.3,3.7c-3.6,2.7-7.8,6.5-11.4,10.3c-3.3,3.5-6.1,6.9-7.7,9.9
	c-3.7,2.1-8.2,3.8-12.6,6.1c-4.5,2.4-9,5.6-11.6,10.9c-5.2,10.5-6.5,17.8-13.5,27.2c-6.6,8.7-11.7,19.1-11.7,30.2
	c0,3.5-2.1,8.3-4.4,12.6c-1.1,2.1-2.2,4.2-3.1,6.1c-0.8,1.9-1.6,3.5-1.3,5.6c0.8,4.7,3.1,8.6,4.6,11.8c0.7,1.6,1.2,3,1.4,4
	c0.1,1,0,1.6-0.5,2.4c-5.2,7-10.8,17.8-13,28.5c-2.5,12.6-3.7,32.5,2.7,45.3c4.5,9,10.8,22.2,18,29.4c1.4,1.4,3.3,2.2,5.3,3
	c0.6,0.3,1.3,0.5,2,0.7c0,0,0,0,0.1,0.1c0.6,0.6,1.4,0.8,2.2,0.6c0.8,0.2,1.6,0.5,2.4,0.7c0,0,0.1,0,0.1,0c0.1,0.1,0.2,0.3,0.3,0.5
	c0.7,1.5,1.2,4.6,1.5,8c0.6,6.9,0.3,15.7,4.7,21.2c13.9,17.3,26.3,17.6,36.4,19.6c14.8,3,28.5,12.6,45.5,12.6
	c10.4,0,20.5,0.9,30.6,1.7c2.3,5.7,6.3,16.8,8.4,25.4c2.1,8.3,2.4,15.6,2.4,24.5c0,7.9,0,15.9,0,23.8H228.2z M210.2,53.1
	c2.5-0.1,4.7,0.6,6.8,1.7c2.8,1.5,5.3,3.7,7.2,5.6c3.2,3.2,5.1,5.3,5.8,6.9c0.7,1.6,0.6,2.9-0.9,5.9c-0.8,1.6-0.8,2.9-0.8,4.8
	c-0.1,1.9,0,4.2,0.1,6.5c0.2,4.6,0.5,9.6,0.5,12.3v18.8c0,9.6,0.9,19.8-1.2,28.2c-1.1,4.4-0.7,9.6-0.1,14.9
	c0.6,5.3,1.3,10.5,1.3,14.5c0,4.3-0.7,6.5-1.3,9.2c-0.6,2.7-1,5.7,0.2,10.2c2.7,10.6-0.1,21.6-0.1,33.2c0,11.3,0.3,15.4,0.7,29
	c0.2,8.3,2,24.1,2,31.8c0,0.6,0,1.2,0,1.8c-0.1,1.3-0.2,2.6-0.4,3.9c-0.3,1.1-0.6,1.6-1.1,2.2c-1.1,1.1-3.8,2.2-8,5.4
	c-5.5,4.1-12.7,4.1-20.6,2.1c-1.5-0.4-3.1-2-5.6-3.5c-0.2-0.1-0.4-0.2-0.6-0.3c-1.5-0.4-3.1,0.4-3.9,1.3c-0.8,0.9-1.3,1.9-1.8,3.1
	c-0.9,2.3-1.6,5.3-2.1,8.4c-0.6,3.1-1,6.2-1.4,8.8c-0.2,1.3-0.4,2.4-0.6,3.3c-0.2,0.9-0.4,1.5-0.4,1.5c-0.3,0.7-0.7,1.3-1,2
	c-1.2,0-2.2,1-2.3,2.3c0,0.4,0.1,0.8,0.3,1.2c-1.1,1.6-2.2,3-3.5,4c-2.4,2-5.3,3.1-10.1,3.1c-8.3,0-10.4-2.6-14.6-6.8
	c-1.8-1.8-4.1-1.9-6.7-1.9c-2.6,0-5.5,0.2-8.5,0.6c-3,0.4-6,0.8-8.5,1.2c-2.5,0.4-4.7,0.6-5.5,0.6c-5.2,0-8.2-1.5-10.8-3.8
	c-2.6-2.3-4.7-5.6-7.3-9.1c-0.7-1-1.4-1.1-2-1.4c-0.7-0.3-1.4-0.5-2.3-0.8c-1.3-0.4-3-0.8-4.6-1.3c-0.3-0.3-0.7-0.5-1.1-0.7
	c-0.7-0.4-1.5-0.6-2.4-0.6c-0.4,0-0.9,0-1.3,0c-1-0.3-2-0.6-2.9-1c-1.8-0.7-3.2-1.5-3.7-1.9c-6.1-6-12.6-19.1-17.1-28.2
	c-5.4-10.8-4.7-30.4-2.3-42.3c1.9-9.7,7.3-20.3,12.1-26.6c1.3-1.8,1.7-3.9,1.4-5.8c-0.2-1.9-1-3.7-1.8-5.4
	c-1.6-3.5-3.7-7.1-4.2-10.6c0,0,0.2-1.2,0.9-2.8c0.7-1.6,1.8-3.6,3-5.8c2.3-4.4,4.9-9.5,4.9-14.8c0-9.7,4.6-19.1,10.8-27.4
	c7.6-10.1,9-18,14-27.9c2-4.1,5.4-6.6,9.6-8.8c4.1-2.2,9-3.9,13.3-6.5c0.4-0.3,0.8-0.6,0.9-1.1c0.9-2,3.7-5.7,7.2-9.3
	c3.5-3.6,7.5-7.2,10.9-9.8c2.8-2.1,5.6-2.4,9.1-2.8c3.4-0.5,7.6-1.3,11.2-4.9c5.5-5.5,10.9-7.5,17.2-12.3c0,0,0.4-0.2,0.8-0.3
	c0.6-0.2,1.4-0.4,2.4-0.5c1.9-0.4,4.4-0.7,6.9-1c2.5-0.3,5-0.6,7.1-0.8c2.1-0.2,3.6-0.4,4.6-0.7C208.5,53.3,209.3,53.2,210.2,53.1
	L210.2,53.1z M258.7,53.1c0.3,0,0.6,0,0.9,0c0.8,0,1.7,0.1,2.5,0.4c1.1,0.3,2.6,0.4,4.6,0.7c2.1,0.3,4.6,0.5,7.1,0.8
	c2.5,0.3,4.9,0.7,6.8,1c1,0.2,1.8,0.4,2.4,0.5c0.4,0.1,0.8,0.3,0.8,0.3c6.4,4.8,11.7,6.7,17.2,12.3c3.6,3.6,7.8,4.4,11.2,4.9
	c3.4,0.5,6.2,0.7,9.1,2.8c3.3,2.5,7.4,6.1,10.9,9.8c3.4,3.6,6.3,7.3,7.2,9.3c0.2,0.5,0.5,0.8,0.9,1.1c4.3,2.6,9.1,4.3,13.3,6.5
	c4.1,2.2,7.5,4.7,9.6,8.8c5,9.9,6.4,17.8,14,27.9c6.2,8.3,10.8,17.7,10.8,27.4c0,5.2,2.6,10.4,4.9,14.8c1.2,2.2,2.3,4.2,3,5.8
	c0.7,1.6,0.9,2.9,0.9,2.8c-0.6,3.5-2.6,7.1-4.2,10.6c-0.8,1.8-1.5,3.5-1.8,5.4c-0.2,1.9,0.1,4,1.4,5.8c4.8,6.3,10.2,16.9,12.1,26.6
	c2.4,11.9,3.1,31.6-2.3,42.3c-4.5,9-11,22.1-17.1,28.2c-0.4,0.4-1.9,1.3-3.7,1.9c-1.8,0.7-4,1.3-6.2,1.9c-2.2,0.6-4.3,1.1-6,1.7
	c-0.9,0.3-1.6,0.5-2.3,0.8c-0.7,0.3-1.3,0.4-2,1.4c-2.6,3.5-4.7,6.8-7.3,9.1c-2.6,2.3-5.6,3.8-10.8,3.8c-0.8,0-2.9-0.3-5.5-0.6
	c-2.5-0.4-5.5-0.8-8.5-1.2c-3-0.4-6-0.6-8.5-0.6c-2.6,0-4.8,0.1-6.7,1.9c-4.2,4.2-6.3,6.8-14.6,6.8c-4.8,0-7.7-1.1-10.1-3.1
	c-1.1-0.9-2.2-2.1-3.1-3.5c-0.1-0.7-0.4-1.4-1.1-1.8c-0.1,0-0.1-0.1-0.2-0.1c-0.7-1.2-1.4-2.5-2.2-4c0,0.1-0.2-0.6-0.4-1.5
	c-0.2-0.9-0.4-2-0.6-3.3c-0.4-2.6-0.9-5.7-1.4-8.8c-0.6-3.1-1.2-6-2.1-8.4c-0.5-1.2-1-2.2-1.8-3.1c-0.8-0.9-2.4-1.7-3.9-1.3
	c-0.2,0.1-0.4,0.1-0.6,0.3c-2.5,1.5-4.1,3.1-5.6,3.5c-7.9,2-15.1,2-20.6-2.1c-4.1-3.1-5.8-4.1-6.1-4.8c-0.4-0.7-0.4-2.7-0.4-8.3
	c0-7.9,0.6-24.6,0-32.7c-1.2-14.9-1.1-10.6-1.1-22c0-11.3-0.5-25.4-1.5-34.4c-0.8-8,2.5-13.9,2.5-23.6c0-8.2,1.7-16.4-0.4-24.7
	c-1-4-1-9.9-0.6-15.8c0.4-6,1-12.1,1-17c0-0.1,0-0.2,0-0.3c-1.6-15.3,1-23.4,0.4-35.4c0.3-0.6,0.4-1.2,0.2-1.9
	c-0.1-0.3-0.2-0.5-0.4-0.8c-0.1-0.8-0.2-1.7-0.3-2.5c0-0.3-0.1-0.5-0.2-0.8c-1.5-3.1-2-5.1-1.6-7.1c0.4-2,1.8-4.2,4.9-7.3
	c1.9-1.9,4.3-4.1,7.1-5.6C254.6,53.9,256.6,53.2,258.7,53.1L258.7,53.1z M232.9,81c0.9,0.1,1.7,0.1,2.5,0.1c0.9,0,1.9,0.1,2.9,0.2
	c0.4,11.1-2,19.4-0.4,35v0c0,4.5-0.6,10.6-1,16.7c-0.4,6.1-0.5,12.3,0.8,17.3c1.7,6.9,0.2,14.8,0.2,23.6c0,8.5-3.5,14.7-2.5,24
	c0.9,8.7,1.4,22.8,1.4,34c0,11.3-0.1,7.4,1.1,22.3c0.6,7.4,0,24.2,0,32.4c0,1.4,0,2.6,0,3.7c-1.2,1.2-3,0.1-2.8-1.1
	c-0.2-0.8-0.1-1.8-0.1-2.7c0-8.4-1.8-24.2-2-31.9c-0.3-13.6-0.7-17.6-0.7-28.8c0-10.9,2.9-22.3-0.1-34.4c-1-3.8-0.7-5.6-0.1-8
	c0.5-2.4,1.5-5.4,1.5-10.2c0-4.5-0.8-9.8-1.4-15c-0.5-5.1-0.8-10,0-13.3c2.4-9.6,1.3-20.1,1.3-29.4c0-8.8,0-11.7,0-18.8
	c0-3-0.3-7.9-0.5-12.5C232.9,83.2,232.9,82.1,232.9,81L232.9,81z M233.9,294.7c0.4,0.3,0.8,0.6,1.3,0.7c0.8,0.3,1.5,0.3,2,0.3
	c0.4,0,0.7,0,1-0.1c0.2,0.5,0.4,1.1,0.7,1.6c1.4,2.5,3.5,3.4,7.5,6.4c7.1,5.3,16,5,24.5,2.9c2.7-0.7,4.4-2.2,5.9-3.3
	c0.2,0.3,0.3,0.5,0.6,1.1c0.7,1.8,1.3,4.6,1.9,7.5c0.5,2.9,1,6.1,1.4,8.7c0.2,1.3,0.4,2.5,0.6,3.5c0.2,1,0.4,1.7,0.8,2.6
	c0.8,1.6,1.6,3.1,2.4,4.5c-0.1,0.1-0.1,0.3-0.2,0.4c-0.3,0.7-0.9,0.8-0.1,0.6c-6.6,1.7-15.4,6.6-22.1,11.7c-5.5,4.1-11,5.4-17.9,7.1
	c-2.5,0.6-6.1,1.2-9.6,1.4c-3.5,0.2-6.9-0.2-8.9-1.2c-5-2.5-13.7-6.3-18.2-10.8c-5.4-5.4-11.4-10.5-20-12.8c0.1-0.3,0.2-0.5,0.4-0.8
	c0.4-0.9,0.6-1.6,0.8-2.6c0.2-1,0.4-2.2,0.6-3.5c0.4-2.6,0.9-5.7,1.4-8.7c0.5-2.9,1.2-5.7,1.9-7.5c0.2-0.6,0.4-0.8,0.6-1
	c1.5,1.1,3.2,2.6,5.8,3.3c8.5,2.1,17.5,2.4,24.5-2.9c3.8-2.9,6.4-3.7,8.5-5.9C232.8,296.8,233.4,295.9,233.9,294.7L233.9,294.7z
	 M381.2,317c0,3.2-0.7,5.2-1.7,7.6c-1,2.4-2.4,5.2-3.2,9.2c-1,4.8-2.1,7.5-4.2,10c-2,2.5-5.2,5-9.9,8.6
	c-7.7,5.7-18.2,10.6-29.2,13.4c-11.5,2.9-26,3.9-38.9,7.5c-3,0.9-5.9,1.9-8.6,2.5c-7.5,1.5-15.4,2.1-23.5,2.4
	c2.8-1.7,5.8-4.1,8.3-7.4c5.1-6.8,5-12.3,3.7-16.6c-1.3-4.2-2.9-6.9-2-10.6c0.1-0.3,0.1-0.6,0.1-1c4.8-2.9,9.7-5.2,13.2-6.1
	c1-0.3,1.7-0.7,2.1-1.3c0.7,0.8,1.5,1.6,2.3,2.2c3.3,2.7,7.6,4.1,13.1,4.1c9.5,0,13.8-4,17.9-8.2c-0.2,0.2,1.3-0.5,3.4-0.5
	c2.2,0,5,0.2,7.9,0.6c2.9,0.4,5.9,0.8,8.4,1.2c2.6,0.4,4.6,0.7,6.2,0.7c6.2,0,10.7-2,14-4.9c3.2-2.8,5.3-6.3,7.7-9.5
	c0,0,0.2-0.1,0.4-0.2c0.4-0.2,1.1-0.4,1.8-0.6c1.6-0.5,3.7-1,5.9-1.6C378,318,379.6,317.5,381.2,317L381.2,317z M99.1,320
	c0.1,0,0.1,0,0.2,0.1c0.8,0.2,1.4,0.5,1.8,0.6c0.2,0.1,0.3,0.2,0.3,0.2c2.4,3.2,4.6,6.7,7.7,9.5c3.3,2.9,7.8,4.9,14,4.9
	c1.6,0,3.6-0.3,6.2-0.7c2.6-0.4,5.5-0.9,8.4-1.2c2.9-0.3,5.7-0.6,7.9-0.6c2.2,0,3.6,0.7,3.4,0.5c4.2,4.2,8.4,8.2,17.9,8.2
	c5.6,0,9.9-1.4,13.1-4.1c2-1.6,3.5-3.6,5-5.9c8.2,1.8,13.6,6.4,19,11.9c0.9,0.9,2,1.8,3,2.7c-0.1,6.6-1.2,18.2,5.5,27.1
	c1.4,1.9,2.9,3.3,4.5,4.4c-11.4-0.7-23-2-35.2-2c-15.2,0-28.5-9.3-44.6-12.5c-10.8-2.2-20.6-1.7-33.7-17.9
	c-2.5-3.2-3.1-11.4-3.7-18.6C99.8,324.2,99.6,322,99.1,320L99.1,320z M267,345.8c0,3.8,1.7,6.9,2.5,9.7c1,3.5,1.4,6.5-3,12.4
	c-4.3,5.7-10.9,8.4-13.7,9.1c-0.7,0.1-1.4,0.6-1.7,1.3c-6.4,0-12.8-0.1-19-0.1c-0.9,0-1.9,0-2.8,0c-0.3-0.6-0.9-1-1.6-1.2
	c-5.3-1.3-8-2.4-11.2-6.6c-4.6-6.1-4.7-14.5-4.6-21.2c4.3,2.6,8.8,4.5,11.7,5.9c3.3,1.6,7.3,1.9,11.2,1.7c3.9-0.2,7.7-0.8,10.5-1.5
	c6.9-1.7,13.3-3.2,19.6-7.9C265.5,346.8,266.2,346.3,267,345.8L267,345.8z M267,345.8"/>
<path class="st4" d="M233.1,294.3c-1.9,4.8-7.6,6-11.1,9.2c-7.3,4.8-16.9,4.1-24.8,1.3c-1.8-0.6-4.2-4.2-5.3-1.2
	c-2.8,7.7-2.6,16.3-5.2,24c3,1.6,6.7,2.4,9.7,4.5c7,4.1,11.7,11.3,19.2,14.7c5.6,2.7,11.1,6.8,17.7,6.3c8.4-0.3,16.8-2.4,24.5-5.7
	c6.4-3.5,11.8-8.4,18.5-11.4c2.7-1.5,5.9-2.2,8.6-3.6c1.5-2.6-1.9-4.8-2.3-7.4c-1.8-7.3-1.7-15.4-4.9-22.3c-2-1-3.5,2.1-5.6,2.5
	c-8.7,2.7-19.2,2.9-26.4-3.4c-2.7-1.8-5.6-3.6-6.7-6.8c-1.5-0.4-3.4,0-4.8-1.1C233.6,293.6,233.4,294.1,233.1,294.3L233.1,294.3z
	 M380.9,316.1c-4.4,1.7-9.3,2-13.4,4.3c-4.1,6-9,12.7-16.7,13.7c-8,1.2-15.9-1.9-23.9-2c-3.2-0.2-6.8-0.3-8.8,2.6
	c-6.5,6.8-17.6,7.8-25.7,3.6c-2-1-3.3-2.9-5.1-4c-2.9,2.1-6.9,2.4-10,4.3c-2.1,1.3-5.1,2-6.3,4.1c-1.7,6.5,4,12.1,2.5,18.6
	c-1.2,7.1-6.7,12.5-12.3,16.4c-0.2,2.5,3.7,0.8,5.3,1.2c9.8-0.5,19.7-1.8,28.9-5c17.8-4.7,36.9-4.6,53.7-12.8
	c8.8-4.1,17-9.6,23.7-16.7c4.6-5.4,3.9-12.9,7.3-18.9c1.1-2.8,2.5-6.1,1.7-9.1C381.5,316.3,381.2,315.9,380.9,316.1L380.9,316.1z
	 M98.6,319.2c-0.8,2.3,0.6,5,0.5,7.5c0.9,6.4,0.3,13.5,3.9,19.1c6.5,8.4,15.5,15.3,26.3,16.9c10.4,1.3,20.2,4.7,29.9,8.6
	c8.7,3.5,17.9,5.9,27.4,5.3c10.3,0.1,20.7,1.5,31,1.7c1.5-1.6-1.8-2.6-2.6-3.9c-6.7-7-7.4-17.7-6.9-27.1c0.3-2.9-3.3-3.9-4.7-6
	c-5.1-5-11.3-9.7-18.6-10.7c-2.5,2.9-5,6.7-8.9,8.2c-8.2,3.4-18.6,2-24.7-4.7c-2.9-3.7-8.3-2-12.4-1.9c-8.4,0.7-17.4,4.2-25.4-0.1
	c-5.3-2.6-8.1-8-11.8-12.3C100.7,319.5,99.6,318.9,98.6,319.2L98.6,319.2z M266.4,345c-7.9,6.6-18.3,9-28.3,10.5
	c-6,0.8-12.3,0.4-17.5-2.9c-3.1-1.2-6-3.4-9.1-4.4c-1.4,2.3-0.4,5.6-0.5,8.3c0.3,8.3,4.2,17.7,12.8,20.3c1.8,0.7,4,0.7,5.4,2.2
	c7.4-0.1,15,0.4,22.3-0.1c1.6-1.9,4.6-1.6,6.6-3.1c6.2-3.2,12-8.9,13-16.1c0-5.1-3.2-9.5-3.4-14.5
	C267.6,344.8,266.7,344.8,266.4,345L266.4,345z M266.4,345"/>
<path class="st5" d="M364.5,492c5.1-11.3,21.9-46.6,27.7-87.1c0.5-3.4,1.1-5.8,1.7-7.2c0.6-1.4,1.1-1.9,1.5-2
	c0.4-0.2,0.9-0.2,1.9-0.1c1,0.2,2.2,0.6,3.7,0.9c2.9,0.7,7,1,11-1.7c4-2.7,7.9-8,12-18c11.1-27.1,19.5-56.1,19.8-79.1
	c0.2-9-4.4-16.6-8.4-22.4c-2-2.9-3.9-5.3-5-7.1c-0.6-0.9-0.9-1.6-1-2c0-0.2,0-0.2-0.1-0.2c0.1-0.2,0.2-0.4,0.2-0.5
	c17.2-68.7,2.3-130-33.7-174c-35.9-44-92.7-70.6-158.8-70.5h-4.2l0,0C166.7,20.9,109.9,47.6,74,91.6c-35.9,44-50.9,105.3-33.7,174
	c0,0.2,0.1,0.4,0.2,0.5c0,0,0,0-0.1,0.2c-0.1,0.4-0.5,1.1-1,2c-1.1,1.8-3,4.2-5,7.1c-4,5.8-8.6,13.4-8.4,22.4
	c0.4,23,8.7,52,19.8,79.1c4.1,10,8,15.3,12,18c4,2.7,8.1,2.3,11,1.7c1.5-0.3,2.7-0.7,3.7-0.9c1-0.2,1.5-0.1,1.9,0.1
	c0.4,0.2,0.9,0.6,1.5,2c0.6,1.4,1.2,3.8,1.7,7.2c5.7,40.5,22.5,75.9,27.7,87.2 M109.4,490.7c-5.1-11.2-21.8-46.4-27.5-86.4
	c-0.5-3.6-1.2-6.3-2-8.3c-0.9-2-2.1-3.5-3.6-4.2c-1.6-0.8-3.2-0.7-4.6-0.5c-1.4,0.3-2.7,0.7-3.9,1c-2.5,0.6-4.7,0.9-7.6-1
	c-2.8-1.9-6.5-6.4-10.4-16c-11-26.8-19.2-55.5-19.5-77.5c-0.1-7.5,3.8-14.3,7.7-19.8c1.9-2.8,3.8-5.2,5.2-7.3
	c0.7-1.1,1.2-2.1,1.5-3.2c0.3-0.9,0.3-2-0.2-3.1c-16.9-67.5-2.2-127.2,32.8-170c35-42.9,90.5-69,155.4-68.8c0,0,0,0,0,0h4.2
	c64.9-0.2,120.4,25.9,155.4,68.8c35,42.9,49.7,102.6,32.9,170c-0.5,1-0.4,2.2-0.2,3.1c0.3,1.1,0.9,2.1,1.5,3.2
	c1.3,2.1,3.2,4.5,5.2,7.3c3.9,5.5,7.8,12.3,7.7,19.8c-0.4,22-8.5,50.7-19.5,77.5c-3.9,9.6-7.5,14.1-10.4,16c-2.8,1.9-5,1.6-7.6,1
	c-1.3-0.3-2.6-0.7-3.9-1c-1.4-0.2-3-0.3-4.6,0.5c-1.5,0.8-2.7,2.2-3.6,4.2c-0.9,2-1.5,4.7-2,8.3c-5.7,40-22.5,75.2-27.5,86.4
	 M350.1,504.4"/>
<polygon class="st6" points="495.3,3.6 492.8,5.7 490.2,8 487.6,10.2 483.8,13.3 412.4,73.8 419.3,76.1 436.1,81.8 443.5,84.3 
	437.6,89.3 431.6,94.3 392.9,127.1 389.6,129.9 387.2,131.9 384.8,134 382.8,135.6 385.3,134.7 388.3,133.4 391.3,132.3 
	395.5,130.6 400.8,128.5 487,94.4 493.5,91.8 483,88.3 473.8,85.2 466.5,82.7 472.4,77.7 517.1,39.9 520.4,37.1 522.8,35.1 
	525.2,33 541.5,19.2 "/>
</svg>
