<?xml version="1.0" encoding="utf-8"?>
<!-- Generator: Adobe Illustrator 27.7.0, SVG Export Plug-In . SVG Version: 6.00 Build 0)  -->
<svg version="1.1" id="Layer_1" xmlns="http://www.w3.org/2000/svg" xmlns:xlink="http://www.w3.org/1999/xlink" x="0px" y="0px"
	 viewBox="0 0 557.8 510.2" style="enable-background:new 0 0 557.8 510.2;" xml:space="preserve">
<style type="text/css">
	.st0{fill:#73A3D9;}
	.st1{fill:#FFFFFF;}
	.st2{fill:url(#SVGID_1_);}
	
		.st3{fill:url(#SVGID_00000002383423670109209370000003694470149380937623_);stroke:#6A6A6B;stroke-width:0.25;stroke-miterlimit:10;}
	.st4{fill:#AFAFAF;stroke:#000000;stroke-width:0.1;stroke-miterlimit:10;}
	.st5{fill:url(#SVGID_00000022558868998898096470000014768832427431248256_);}
	.st6{fill:url(#SVGID_00000075846619643458901850000000957803616046964376_);}
	.st7{fill-rule:evenodd;clip-rule:evenodd;fill:#73A3D9;}
	.st8{fill-rule:evenodd;clip-rule:evenodd;fill:#1500FF;}
	.st9{fill-rule:evenodd;clip-rule:evenodd;fill:#FFFFFF;stroke:#FFFFFF;stroke-width:13;stroke-miterlimit:10;}
	.st10{opacity:0.5;fill-rule:evenodd;clip-rule:evenodd;fill:url(#SVGID_00000075853999158881350040000012746645666063968912_);}
</style>
<g>
	<g>
		<polygon class="st0" points="172.3,30.5 158.5,380.1 158.2,382.9 157.2,388.1 156.4,390.8 155,393.4 90.2,483.8 24,329.2 
			23.2,326.5 22.2,321.4 21.9,318.4 10.7,30.5 		"/>
		<path class="st1" d="M127.9,360.1l-4.9,1.3l-4.4,2.5c-13.7,10.1-9.6,31.3,6.8,35.7l5.1,0.7l5-0.7c16.3-4.5,20.6-25.5,6.8-35.7
			l-4.4-2.5l-4.9-1.3"/>
		<path class="st1" d="M47.5,298.6l-4.9,1.3l-4.4,2.4c-13.7,10.1-9.7,31.3,6.8,35.7l5,0.7l5-0.7c16.3-4.3,20.6-25.3,6.8-35.7
			l-4.4-2.4l-4.9-1.3"/>
		<path class="st1" d="M127.9,236.9l-4.9,1.3l-4.4,2.5c-13.7,10.1-9.7,31.2,6.8,35.7l5.1,0.7l5-0.7c16.3-4.5,20.6-25.4,6.8-35.7
			l-4.4-2.5l-4.9-1.3"/>
		<path class="st1" d="M47.5,175.3l-4.9,1.3l-4.4,2.5c-13.7,10-9.7,31.4,6.8,35.7l5,0.7l5-0.7c16.4-4.3,20.6-25.4,6.8-35.7l-4.4-2.5
			l-4.9-1.3"/>
		<path class="st1" d="M47.5,52.1l-4.9,1.3l-4.4,2.5C24.5,66,28.6,87,45,91.5l5,0.7l5-0.7c16.4-4.5,20.6-25.3,6.8-35.7l-4.4-2.5
			l-4.9-1.3"/>
		<path class="st1" d="M127.9,113.7L123,115l-4.4,2.5c-13.7,10.1-9.7,31.2,6.8,35.7l5.1,0.7l5-0.7c16.3-4.5,20.6-25.4,6.8-35.7
			l-4.4-2.5l-4.9-1.3"/>
	</g>
</g>
<g>
	
		<linearGradient id="SVGID_1_" gradientUnits="userSpaceOnUse" x1="29.0554" y1="439.3949" x2="29.0554" y2="-21.5914" gradientTransform="matrix(1 0 0 1 67.2136 15.0443)">
		<stop  offset="0" style="stop-color:#FFFFFF;stop-opacity:0"/>
		<stop  offset="0.5186" style="stop-color:#9797FF;stop-opacity:0.5186"/>
		<stop  offset="1" style="stop-color:#3333FF"/>
	</linearGradient>
	<polygon class="st2" points="199.3,401.5 -6.7,401.5 49.9,27.7 142.7,27.7 	"/>
	
		<radialGradient id="SVGID_00000034770630900839785040000004301670546797760934_" cx="-143.8407" cy="-178.5252" r="57.8036" gradientTransform="matrix(0.735 0 0 0.735 202.0661 178.6808)" gradientUnits="userSpaceOnUse">
		<stop  offset="0" style="stop-color:#0000FF"/>
		<stop  offset="0.1201" style="stop-color:#0A0AFF"/>
		<stop  offset="0.3227" style="stop-color:#2424FF"/>
		<stop  offset="0.5829" style="stop-color:#4F4FFF"/>
		<stop  offset="0.8877" style="stop-color:#8A8AFF"/>
		<stop  offset="0.9609" style="stop-color:#9999FF"/>
	</radialGradient>
	
		<path style="fill:url(#SVGID_00000034770630900839785040000004301670546797760934_);stroke:#6A6A6B;stroke-width:0.25;stroke-miterlimit:10;" d="
		M142.9,39c0,25.7-20.8,46.5-46.5,46.5c-25.7,0-46.5-20.8-46.5-46.5S70.7,9.4,96.3,9.4C122,9.4,142.9,13.3,142.9,39z"/>
	<rect x="41.9" y="6.2" class="st4" width="104" height="20.6"/>
</g>
<g>
	<g>
		<polygon class="st0" points="552,30.5 538.2,380.1 537.9,382.9 537,388.1 536.1,390.8 534.7,393.4 469.9,483.8 403.8,329.2 
			402.9,326.5 401.9,321.4 401.6,318.4 390.4,30.5 		"/>
		<path class="st1" d="M507.6,360.1l-4.9,1.3l-4.4,2.5c-13.7,10.1-9.6,31.3,6.8,35.7l5.1,0.7l5-0.7c16.3-4.5,20.6-25.5,6.8-35.7
			l-4.4-2.5l-4.9-1.3"/>
		<path class="st1" d="M427.3,298.6l-4.9,1.3l-4.4,2.4c-13.7,10.1-9.7,31.3,6.8,35.7l5,0.7l5-0.7c16.3-4.3,20.6-25.3,6.8-35.7
			l-4.4-2.4l-4.9-1.3"/>
		<path class="st1" d="M507.6,236.9l-4.9,1.3l-4.4,2.5c-13.7,10.1-9.7,31.2,6.8,35.7l5.1,0.7l5-0.7c16.3-4.5,20.6-25.4,6.8-35.7
			l-4.4-2.5l-4.9-1.3"/>
		<path class="st1" d="M427.3,175.3l-4.9,1.3L418,179c-13.7,10-9.7,31.4,6.8,35.7l5,0.7l5-0.7c16.4-4.3,20.6-25.4,6.8-35.7l-4.4-2.5
			l-4.9-1.3"/>
		<path class="st1" d="M427.3,52.1l-4.9,1.3l-4.4,2.5c-13.7,10.1-9.7,31.2,6.8,35.7l5,0.7l5-0.7c16.4-4.5,20.6-25.3,6.8-35.7
			l-4.4-2.5l-4.9-1.3"/>
		<path class="st1" d="M507.6,113.7l-4.9,1.3l-4.4,2.5c-13.7,10.1-9.7,31.2,6.8,35.7l5.1,0.7l5-0.7c16.3-4.5,20.6-25.4,6.8-35.7
			l-4.4-2.5l-4.9-1.3"/>
	</g>
</g>
<g>
	
		<linearGradient id="SVGID_00000134939743797226791110000009817750899839311779_" gradientUnits="userSpaceOnUse" x1="386.6827" y1="442.1722" x2="386.6827" y2="-18.8141" gradientTransform="matrix(1 0 0 1 67.2136 15.0443)">
		<stop  offset="0" style="stop-color:#FFFFFF;stop-opacity:0"/>
		<stop  offset="0.5186" style="stop-color:#9797FF;stop-opacity:0.5186"/>
		<stop  offset="1" style="stop-color:#3333FF"/>
	</linearGradient>
	<polygon style="fill:url(#SVGID_00000134939743797226791110000009817750899839311779_);" points="512.4,404.3 395.4,404.3 
		427.5,30.5 480.3,30.5 	"/>
</g>
<g>
	
		<linearGradient id="SVGID_00000101809882640543048360000012607652538032708796_" gradientUnits="userSpaceOnUse" x1="426.2691" y1="442.1722" x2="426.2691" y2="-18.8141" gradientTransform="matrix(1 0 0 1 67.2136 15.0443)">
		<stop  offset="0" style="stop-color:#FFFFFF;stop-opacity:0"/>
		<stop  offset="0.4745" style="stop-color:#F79599;stop-opacity:0.4745"/>
		<stop  offset="1" style="stop-color:#ED1C24"/>
	</linearGradient>
	<polygon style="fill:url(#SVGID_00000101809882640543048360000012607652538032708796_);" points="552,404.3 435,404.3 467.1,30.5 
		519.8,30.5 	"/>
</g>
<g>
	<g>
		<g>
			<g>
				<polygon class="st7" points="348.3,31.7 348.1,41.6 348.1,312.3 344.3,342.7 324.2,412.3 282.8,477.5 241.3,412.3 221.2,342.7 
					217.4,312.3 217.4,41.6 217.3,31.7 				"/>
			</g>
		</g>
		<rect x="272.6" y="301.5" class="st8" width="20.3" height="46.8"/>
		<rect x="272.6" y="183.5" class="st8" width="20.3" height="46.8"/>
		<rect x="268.5" y="53.4" class="st8" width="20.3" height="46.8"/>
		<rect x="308.3" y="333.7" class="st9" width="13.9" height="23.1"/>
		<rect x="321.5" y="89.6" class="st9" width="13.9" height="23.1"/>
		<rect x="321.5" y="252.3" class="st9" width="13.9" height="23.1"/>
		<rect x="232.1" y="293" class="st9" width="13.9" height="23.1"/>
		<rect x="230" y="211.6" class="st9" width="13.9" height="23.1"/>
		<rect x="321.5" y="171" class="st9" width="13.9" height="23.1"/>
		<rect x="230" y="130.3" class="st9" width="13.9" height="23.1"/>
		<rect x="275.8" y="374.3" class="st9" width="13.9" height="23.1"/>
	</g>
	
		<radialGradient id="SVGID_00000023238756080551590190000005128546741253341074_" cx="280.2484" cy="192.563" r="109.1749" gradientTransform="matrix(0.9714 0 0 0.9714 11.5772 13.7456)" gradientUnits="userSpaceOnUse">
		<stop  offset="0" style="stop-color:#1500FF"/>
		<stop  offset="1" style="stop-color:#FFFFFF"/>
	</radialGradient>
	
		<circle style="opacity:0.5;fill-rule:evenodd;clip-rule:evenodd;fill:url(#SVGID_00000023238756080551590190000005128546741253341074_);" cx="283.8" cy="200.8" r="84.6"/>
</g>
</svg>
